<svg id="Layer_1" data-name="Layer 1" xmlns="http://www.w3.org/2000/svg" viewBox="0 0 340 323"><defs><style>.cls-1{fill:#605b55;}.cls-2{fill:#fff;}.cls-3{fill:#048f62;}</style></defs><title>uci-tabo-mg-logos-brand-4-2019</title><g id="_Group_" data-name="&lt;Group&gt;"><g id="_Group_2" data-name="&lt;Group&gt;"><rect class="cls-1" x="63.79" y="5.09" width="15.51" height="186.95"/></g></g><polygon id="_Path_" data-name="&lt;Path&gt;" class="cls-2" points="109.97 52.15 109.97 181.09 79.29 192.04 79.29 5.09 109.97 52.15"/><g id="_Group_3" data-name="&lt;Group&gt;"><g id="_Group_4" data-name="&lt;Group&gt;"><rect class="cls-1" x="130" y="66.85" width="5.34" height="105.17"/></g></g><polygon class="cls-2" points="161.25 95.53 161.25 160.52 135.34 172.03 135.34 66.85 161.25 95.53"/><g id="_Group_5" data-name="&lt;Group&gt;"><g id="_Group_6" data-name="&lt;Group&gt;"><rect class="cls-1" x="262.54" y="5.09" width="15.51" height="186.95"/></g></g><polygon id="_Path_2" data-name="&lt;Path&gt;" class="cls-2" points="231.86 52.15 231.86 181.09 262.54 192.04 262.54 5.09 231.86 52.15"/><g id="_Group_7" data-name="&lt;Group&gt;"><g id="_Group_8" data-name="&lt;Group&gt;"><rect class="cls-1" x="206.49" y="66.85" width="5.34" height="105.17"/></g></g><polygon class="cls-2" points="180.58 95.53 180.58 160.52 206.49 172.02 206.49 66.85 180.58 95.53"/><rect class="cls-2" x="13.48" y="221.71" width="3.61" height="5"/><path class="cls-2" d="M32.63,245.45a14.45,14.45,0,0,1-.76,5.65c-.71,1.64-2.13,2.46-4.32,2.46H25.42v-.06H17V230.94H13.48v22.45c0,6.93-2.39,9.93-7.12,9.93v3.93c5.9-.41,9.35-3.58,10.72-9.63H28.72c5,0,7.47-3.47,7.47-10.34V230.94H32.63Z"/><rect class="cls-2" x="32.58" y="221.71" width="3.61" height="5"/><path class="cls-2" d="M46.71,230.88v3.88h1.37a10.89,10.89,0,0,1,9.41,6.11C59.16,244,60,248.28,60,253.5H41.17v4.12H63.74c0-7.35-.76-12.93-2.34-16.87C58.81,234.17,53.88,230.88,46.71,230.88Z"/><path class="cls-2" d="M74.81,253.39c0,6.93-2.38,9.93-7.11,9.93v3.93c7.47-.46,10.67-5.05,10.67-14.63V230.94H74.81Z"/><rect class="cls-2" x="112.83" y="261.56" width="3.66" height="4.99"/><path class="cls-2" d="M113.74,231.7c-5.54,0-9.71,2.06-12.6,6.23,1.57,1.82,2.59,3,3.1,3.65a10.1,10.1,0,0,1,9.55-5.82c8,0,12.51,5.7,12.51,15.63,0,.65,0,1.35-.1,2.11H96.52a32.45,32.45,0,0,1-3.26-.05,3.8,3.8,0,0,1-2.89-1.83c-.67-1.17-1-3.11-1-5.81V219.6H85.69v28.68c0,3.11.71,5.46,2.18,7.1a5.93,5.93,0,0,0,4.63,2.24h38v-5.94C130.52,239.46,123.86,231.7,113.74,231.7Z"/><rect class="cls-2" x="157.09" y="221.71" width="3.61" height="5"/><path class="cls-2" d="M169.75,246.34c0,10.28-4,17-10.78,17-6.65,0-10.82-6.76-10.82-17v-15.4h-3.56v16.22c0,11.87,6.3,20.21,14.38,20.21,8.24,0,14.34-8.75,14.34-20.21V230.94h-3.56Z"/><rect class="cls-2" x="212.08" y="261.61" width="3.61" height="4.99"/><rect class="cls-2" x="205.42" y="261.61" width="3.61" height="4.99"/><path class="cls-2" d="M249.38,230.88c-5.64,0-11.79,4.82-15.6,13.11V233.76h-3.56v10.58c0,6.11-1.78,9.16-5.39,9.16H214.67a16.57,16.57,0,0,0,1-6.22V230.94h-3.56v14.51a15.12,15.12,0,0,1-.76,5.7c-.71,1.59-2.14,2.41-4.32,2.41h-8.84V242.63c0-7.75-3.51-11.75-9.15-11.75a8.91,8.91,0,0,0-7.32,3.88,15.54,15.54,0,0,0-2.9,9.58,15.82,15.82,0,0,0,2.75,9.52,8.31,8.31,0,0,0,7,3.76h5.54c-.86,3.76-3,5.7-6.2,5.7h-.46v3.93c5.85-.41,9.3-3.58,10.32-9.63h63.58c.15-2.47.25-4.76.25-6.82C261.58,237.58,257.52,230.88,249.38,230.88ZM194.5,253.5l-5.9.06c-2,0-3.56-1.11-4.73-3.35a13.3,13.3,0,0,1-1.42-6.28,11.88,11.88,0,0,1,1.63-6.11c1.22-2.06,2.79-3.12,4.72-3.12a5.07,5.07,0,0,1,4.32,2.06,6.86,6.86,0,0,1,1.38,4.35Zm63.32.06h-24.9v-1c2.69-9.57,10-17.92,16.21-17.92,5.59,0,8.84,6.11,8.84,15.22C258,251,257.92,252.27,257.82,253.56Z"/><path class="cls-2" d="M318.45,245.45a14.4,14.4,0,0,1-.77,5.65c-.71,1.64-2.13,2.46-4.32,2.46h-2.18v-.06H305a18,18,0,0,0,.46-4.11,15.58,15.58,0,0,0-2.7-9.46,9.26,9.26,0,0,0-7.82-3.82,9.39,9.39,0,0,0-7.88,3.76,15.59,15.59,0,0,0-2.85,9.58,19.55,19.55,0,0,0,.41,4.05h-5a32.15,32.15,0,0,1-3.25-.05,3.82,3.82,0,0,1-2.9-1.83,12.47,12.47,0,0,1-1-5.81V219.6h-3.66v28.68c0,3.11.71,5.46,2.19,7.1a5.9,5.9,0,0,0,4.62,2.24h10.57a9.36,9.36,0,0,0,8.75,5.11,9.25,9.25,0,0,0,8.53-5.11h11.13c5,0,7.47-3.47,7.47-10.34V219.6h-3.55ZM294.87,259a5.54,5.54,0,0,1-5-2.88,12.8,12.8,0,0,1-1.42-6.46,13.78,13.78,0,0,1,1.42-6.82,5.73,5.73,0,0,1,5.24-3.12,5.15,5.15,0,0,1,4.83,2.88,12.76,12.76,0,0,1,1.37,6.35Q301.27,259,294.87,259Z"/><rect class="cls-2" x="328.96" y="219.6" width="3.56" height="38.02"/><path class="cls-3" d="M25.47,290.29h-.41a1.9,1.9,0,0,0-1.73,1.06L16.72,302.3l-6.58-10.92a2,2,0,0,0-1.77-1.09H8a2,2,0,0,0-1.92,2v19.31a1.89,1.89,0,0,0,1.86,2,1.92,1.92,0,0,0,1.89-2V297.86l5.28,8.39a1.74,1.74,0,0,0,3.19,0l5.3-8.46v13.82a2,2,0,0,0,1.9,2,2,2,0,0,0,1.92-2V292.33A2,2,0,0,0,25.47,290.29Z"/><path class="cls-3" d="M44.55,291.74a2.38,2.38,0,0,0-2.27-1.64H42.1a2.43,2.43,0,0,0-2.3,1.64l-8.06,19.08a2.12,2.12,0,0,0-.25.92,1.81,1.81,0,0,0,1.77,1.88A1.85,1.85,0,0,0,35,312.33l1.83-4.44H47.4l1.77,4.31A2,2,0,0,0,51,313.62a1.85,1.85,0,0,0,1.8-1.94,1.91,1.91,0,0,0-.21-.86Zm-6.24,12.57L42.13,295,46,304.31Z"/><path class="cls-3" d="M65.12,300.1c-4.19-1.06-5.18-1.85-5.18-3.62v-.07c0-1.51,1.3-2.73,3.53-2.73a8.71,8.71,0,0,1,5,1.74,1.75,1.75,0,0,0,1,.3,1.83,1.83,0,0,0,1.8-1.87,1.86,1.86,0,0,0-.84-1.62,11.44,11.44,0,0,0-6.88-2.13c-4.32,0-7.42,2.73-7.42,6.67v.07c0,4.24,2.61,5.69,7.23,6.87,4,1,4.9,1.88,4.9,3.53v.06c0,1.71-1.49,2.9-3.84,2.9a9.14,9.14,0,0,1-6.09-2.37,1.65,1.65,0,0,0-1.11-.36,1.83,1.83,0,0,0-1.8,1.87,2,2,0,0,0,.74,1.55,13.08,13.08,0,0,0,8.16,2.89c4.56,0,7.76-2.56,7.76-6.87v-.07C72.07,303,69.71,301.28,65.12,300.1Z"/><path class="cls-3" d="M91.86,290.23A2.18,2.18,0,0,0,90,291.44l-6.14,9.28-6-9.24A2.18,2.18,0,0,0,76,290.26a1.91,1.91,0,0,0-1.93,1.94,2.62,2.62,0,0,0,.44,1.42L82,304.5v7.11a1.91,1.91,0,1,0,3.81,0v-7.2l7.42-10.76a2.62,2.62,0,0,0,.52-1.45A1.86,1.86,0,0,0,91.86,290.23Z"/><path class="cls-3" d="M106.54,290c-6.67,0-11.39,5.43-11.39,11.91V302c0,6.49,4.65,11.85,11.32,11.85s11.39-5.43,11.39-11.91v-.07C117.86,295.39,113.21,290,106.54,290Zm7.32,12c0,4.48-3,8.1-7.32,8.1s-7.39-3.69-7.39-8.16v-.07c0-4.47,3-8.12,7.32-8.12s7.39,3.71,7.39,8.19Z"/><path class="cls-3" d="M138.83,290.26a2,2,0,0,0-1.92,2v11.41c0,4.25-2.08,6.38-5.46,6.38s-5.49-2.27-5.49-6.54V292.27a1.91,1.91,0,1,0-3.82,0v11.41c0,6.68,3.6,10.14,9.25,10.14s9.33-3.46,9.33-10.33V292.27A1.94,1.94,0,0,0,138.83,290.26Z"/><path class="cls-3" d="M163,290.26a1.93,1.93,0,0,0-1.86,2v14.15l-10.86-14.9a2.38,2.38,0,0,0-2-1.19h-.41a2,2,0,0,0-1.92,2v19.31a1.88,1.88,0,1,0,3.75,0V297l11.17,15.33a2.39,2.39,0,0,0,2,1.21H163a1.9,1.9,0,0,0,1.86-2V292.23A1.93,1.93,0,0,0,163,290.26Z"/><path class="cls-3" d="M197.22,300.59h-6.05a1.75,1.75,0,0,0-1.71,1.78,1.72,1.72,0,0,0,1.71,1.74h4.28v4.31a8.52,8.52,0,0,1-5.24,1.74c-4.44,0-7.38-3.48-7.38-8.22v-.07c0-4.41,3-8.12,7-8.12a7.92,7.92,0,0,1,5.27,1.81,1.93,1.93,0,0,0,1.18.46,2,2,0,0,0,1.89-2,2.07,2.07,0,0,0-.77-1.64A11.31,11.31,0,0,0,190,290c-6.54,0-11.2,5.46-11.2,11.91V302c0,6.72,4.47,11.85,11.26,11.85a13.34,13.34,0,0,0,7.73-2.5,2.84,2.84,0,0,0,1.33-2.57v-6.15A2,2,0,0,0,197.22,300.59Z"/><path class="cls-3" d="M215.68,291.74a2.39,2.39,0,0,0-2.27-1.64h-.18a2.43,2.43,0,0,0-2.3,1.64l-8.06,19.08a2.12,2.12,0,0,0-.25.92,1.81,1.81,0,0,0,1.77,1.88,1.85,1.85,0,0,0,1.77-1.29l1.83-4.44h10.54l1.77,4.31a2,2,0,0,0,1.86,1.42,1.85,1.85,0,0,0,1.8-1.94,1.8,1.8,0,0,0-.22-.86Zm-6.24,12.57,3.82-9.31,3.81,9.31Z"/><path class="cls-3" d="M237.77,290.42H230a2,2,0,0,0-1.92,2v19.15a1.91,1.91,0,1,0,3.82,0v-6.18h4.8l5.28,7.13a2.14,2.14,0,0,0,1.86,1.06,1.85,1.85,0,0,0,1.83-1.88,2.42,2.42,0,0,0-.62-1.54l-4.16-5.56a6.76,6.76,0,0,0,4.93-6.88v-.06a7.19,7.19,0,0,0-1.8-5A8.42,8.42,0,0,0,237.77,290.42ZM242,298c0,2.34-1.74,3.85-4.47,3.85h-5.58v-7.73h5.55c2.82,0,4.5,1.35,4.5,3.82Z"/><path class="cls-3" d="M258.62,290.42h-6.18a2,2,0,0,0-1.92,2v19a2,2,0,0,0,1.92,2h6.18a11.18,11.18,0,0,0,11.54-11.51v-.07A11.13,11.13,0,0,0,258.62,290.42ZM266.16,302c0,4.51-3,7.77-7.54,7.77h-4.28V294.11h4.28c4.56,0,7.54,3.32,7.54,7.83Z"/><path class="cls-3" d="M289.49,309.83H278.6v-6.18h9.34a1.74,1.74,0,0,0,1.7-1.78,1.78,1.78,0,0,0-1.7-1.84H278.6v-6h10.73a1.76,1.76,0,0,0,1.71-1.81,1.78,1.78,0,0,0-1.71-1.81H276.7a2,2,0,0,0-1.92,2v19a2,2,0,0,0,1.92,2h12.79a1.75,1.75,0,0,0,1.7-1.81A1.78,1.78,0,0,0,289.49,309.83Z"/><path class="cls-3" d="M312.6,290.26a1.92,1.92,0,0,0-1.86,2v14.15l-10.86-14.9a2.4,2.4,0,0,0-2-1.19h-.4a2,2,0,0,0-1.92,2v19.31a1.88,1.88,0,1,0,3.75,0V297l11.17,15.33a2.37,2.37,0,0,0,2,1.21h.16a1.91,1.91,0,0,0,1.86-2V292.23A1.93,1.93,0,0,0,312.6,290.26Z"/><path class="cls-3" d="M328.48,300.1c-4.18-1.06-5.18-1.85-5.18-3.62v-.07c0-1.51,1.31-2.73,3.54-2.73a8.66,8.66,0,0,1,5,1.74,1.78,1.78,0,0,0,1,.3,1.83,1.83,0,0,0,1.8-1.87,1.89,1.89,0,0,0-.84-1.62,11.49,11.49,0,0,0-6.89-2.13c-4.31,0-7.41,2.73-7.41,6.67v.07c0,4.24,2.6,5.69,7.23,6.87,4,1,4.9,1.88,4.9,3.53v.06c0,1.71-1.49,2.9-3.85,2.9a9.12,9.12,0,0,1-6.08-2.37,1.7,1.7,0,0,0-1.12-.36,1.82,1.82,0,0,0-1.79,1.87,1.92,1.92,0,0,0,.74,1.55,13.06,13.06,0,0,0,8.16,2.89c4.56,0,7.75-2.56,7.75-6.87v-.07C335.43,303,333.08,301.28,328.48,300.1Z"/></svg>