<svg id="Layer_1" data-name="Layer 1" xmlns="http://www.w3.org/2000/svg" viewBox="0 0 400 420"><defs><style>.cls-1{fill:#603813;}.cls-2{fill:#cd8a2a;}</style></defs><polygon class="cls-1" points="37.95 54.75 41.92 54.75 41.92 66.42 44.11 66.42 44.11 54.75 48.09 54.75 48.09 52.92 37.95 52.92 37.95 54.75"/><path class="cls-1" d="M61,52.92l-3.87,10.8h0l-3.77-10.8H50.23v13.6h2V59.85c0-1.48-.05-3.06-.15-4.69h0L56,66.52h2l4-11.36h.05c0,.2-.05.87-.05,2s0,2,0,2.65v6.67h2.14V52.92Z"/><path class="cls-1" d="M56.08,270.66l12.4-.31,32.68-.59,46.2-.49,53-.21c18,.06,36.06.14,53,.21s32.68.35,46.2.49l32.68.59,12.4.31-12.4.31-32.68.6c-13.52.13-29.29.43-46.2.48s-34.93.15-53,.21l-53-.21-46.2-.49L68.48,271l-12.4-.31"/><path class="cls-1" d="M85.72,340.94c-.64.42-1.26.86-1.84,1.28s-1.22.81-1.9,1.23A9.55,9.55,0,0,1,83,346a10.54,10.54,0,0,1,.29,2.37,6.12,6.12,0,0,1-.08,1,7.72,7.72,0,0,1-.19,1H73.23a17.08,17.08,0,0,0-.45-3.68,11.22,11.22,0,0,0-1.27-3.14,7,7,0,0,0-2.18-2.17,6,6,0,0,0-3.18-.81,5.41,5.41,0,0,0-2.8.77,7.9,7.9,0,0,0-2.22,2.06,10.26,10.26,0,0,0-2,6,6.86,6.86,0,0,0,.68,3,5.47,5.47,0,0,0,2,2.33,2.74,2.74,0,0,0,.48.18c.21.05.43.1.7.14h5.72a8.48,8.48,0,0,1-3.54,4.34A12.81,12.81,0,0,1,59.13,361a.22.22,0,0,0,0,.15c0,.09,0,.18,0,.29a2.85,2.85,0,0,0,0,.29c0,.07,0,.13,0,.14a13.1,13.1,0,0,0,2.71,1.67,6.79,6.79,0,0,0,2.63.58,5.86,5.86,0,0,0,3-.87,11.08,11.08,0,0,0,3-2.85,9.94,9.94,0,0,0,1.42-2.39,18.69,18.69,0,0,0,1-3h14c.14-.93.25-1.87.34-2.83s.12-1.94.12-2.94A24.57,24.57,0,0,0,86.9,345,15.92,15.92,0,0,0,85.72,340.94Zm-16.86,9.41H64.29a2.13,2.13,0,0,1-1.19-1,3.2,3.2,0,0,1-.39-1.56,3.67,3.67,0,0,1,.2-1.25,3.59,3.59,0,0,1,.55-1.13,3.53,3.53,0,0,1,.86-.82,2,2,0,0,1,1.13-.32,2.87,2.87,0,0,1,1.82.53,3.82,3.82,0,0,1,1.07,1.31,5.65,5.65,0,0,1,.52,1.63,9.27,9.27,0,0,1,.13,1.48A4.11,4.11,0,0,1,68.86,350.35Z"/><path class="cls-1" d="M78.43,362.5l3.3,3.31c.58-.59,1.13-1.12,1.63-1.65s1.08-1.07,1.66-1.66l-3.29-3.29Z"/><path class="cls-1" d="M144.77,342.5a6.54,6.54,0,0,0-2.1-1.63,5.39,5.39,0,0,0-2.24-.49,6.67,6.67,0,0,0-2.38.44,15.09,15.09,0,0,0-2.41,1.21,20.74,20.74,0,0,0-2.36,1.77c-.78.68-1.53,1.37-2.26,2.13s-1.42,1.47-2.08,2.25-1.28,1.48-1.83,2.17h-1.77q-.47-1.29-.87-2.7a16.45,16.45,0,0,1-.6-3c-.6.25-1.17.52-1.71.77s-1.11.51-1.74.77a20.5,20.5,0,0,0,.44,2.28,9.2,9.2,0,0,0,.65,1.85h-6.1c-1-1.53-2-2.9-2.87-4.13a21.44,21.44,0,0,0-2.67-3.1,12.16,12.16,0,0,0-2.64-2,5.89,5.89,0,0,0-2.72-.68,4.43,4.43,0,0,0-1.69.32,4,4,0,0,0-1.29.81,5,5,0,0,0-.93,1.18,8.19,8.19,0,0,0-.63,1.42c0,.11.07.24.13.41a3.53,3.53,0,0,0,.17.49c.06.15.11.3.16.41s.08.15.11.12.36-.23.61-.38a4.12,4.12,0,0,1,.78-.42c.3-.12.62-.22,1-.32a4.51,4.51,0,0,1,1-.12,4.79,4.79,0,0,1,.89.09,4.2,4.2,0,0,1,.92.32,6.61,6.61,0,0,1,1.47,1,13.27,13.27,0,0,1,1.26,1.33c.38.49.77,1,1.11,1.56s.68,1.08,1,1.64H94.18l.3-19.71c-.76.3-1.48.63-2.2.92s-1.44.61-2.23.94c.08,2.92.16,5.83.22,8.75s.14,5.84.2,8.75v5h57.28c.08-.84.17-1.69.28-2.51s.19-1.67.29-2.49a30.12,30.12,0,0,0-1.64-4.51A13.8,13.8,0,0,0,144.77,342.5Zm-.78,7.85H131.91c.59-.67,1.21-1.33,1.89-2a18.3,18.3,0,0,1,2-1.77,10.76,10.76,0,0,1,2-1.27,4.3,4.3,0,0,1,1.94-.48,3.35,3.35,0,0,1,2.55,1.14,6,6,0,0,1,1.08,1.57,12.21,12.21,0,0,1,.87,2.35Z"/><path class="cls-1" d="M150.94,332.5c.08,2.92.15,5.83.23,8.75s.16,5.84.21,8.75v5h.89c.47-.89.94-1.74,1.4-2.56l1.41-2.55c0-1.65,0-3.27.08-4.86l.09-4.76q0-2.38.09-4.77c0-1.59.06-3.21.09-4.87-.76.3-1.51.62-2.23.92Z"/><path class="cls-1" d="M155,326a7.73,7.73,0,0,1-.85.06c-.29,0-.59,0-.87,0a2.11,2.11,0,0,1-.71-.09.64.64,0,0,1-.41-.31.71.71,0,0,1,0-.58.87.87,0,0,1,.34-.43.9.9,0,0,1,.42-.1,2,2,0,0,1,.47.07l.46.12.64-1.48a.83.83,0,0,0-.51-.49,2.44,2.44,0,0,0-.86-.24A1.86,1.86,0,0,0,152,323a4.15,4.15,0,0,0-.94,1.12,5.64,5.64,0,0,0-.59,1.39,4.33,4.33,0,0,0-.23,1.25,1,1,0,0,0,.13.46,1.7,1.7,0,0,0,.38.42,1.55,1.55,0,0,0,.48.28,1.39,1.39,0,0,0,.48.14,3,3,0,0,1-.47.3,2.56,2.56,0,0,0-.4.22,2.12,2.12,0,0,0-.36.25,3.46,3.46,0,0,0-.36.39l.25,1.14a5.65,5.65,0,0,1,1-.67,10.89,10.89,0,0,1,1.15-.52c.41-.15.81-.27,1.22-.39l1.17-.3.81-2.47A4.58,4.58,0,0,0,155,326Z"/><polygon class="cls-1" points="182.96 334.11 179.66 330.81 176.38 334.11 179.66 337.4 182.96 334.11"/><path class="cls-1" d="M202.56,346.22a23.47,23.47,0,0,0-2.67-3.1,12.29,12.29,0,0,0-2.67-2,5.93,5.93,0,0,0-2.73-.68,4.17,4.17,0,0,0-1.64.32,3.72,3.72,0,0,0-1.28.81,4.51,4.51,0,0,0-.92,1.18,7.49,7.49,0,0,0-.63,1.42,3,3,0,0,0,.15.66,2.06,2.06,0,0,0,.16.43c.07.11.13.17.16.23s.1.07.1.09c.15-.1.37-.25.59-.37a6.4,6.4,0,0,1,.78-.41,7.91,7.91,0,0,1,.94-.32,4.22,4.22,0,0,1,1-.12,5.65,5.65,0,0,1,.89.08,4.22,4.22,0,0,1,1,.33,7.68,7.68,0,0,1,1.47,1,11.21,11.21,0,0,1,1.24,1.33,17.63,17.63,0,0,1,1.12,1.56c.36.55.71,1.08,1,1.64H184.19v-.93a27.29,27.29,0,0,0-.35-4.33,19.17,19.17,0,0,0-1.2-4.15l-1.84,1.28-1.86,1.23a10.92,10.92,0,0,1,1.26,4.95,6.15,6.15,0,0,1-.07,1c-.06.33-.13.67-.2,1h-8.28l.29-19.71c-.76.3-1.49.63-2.19.92s-1.44.61-2.24.94c.08,2.92.17,5.83.23,8.75s.13,5.84.2,8.75v5h38.74v-4.65h-1.27C204.41,348.82,203.47,347.45,202.56,346.22Z"/><path class="cls-1" d="M210,350l0,5h.87c.48-.89.94-1.74,1.4-2.56s.93-1.68,1.41-2.55q0-2.47.09-4.86c0-1.59,0-3.17.08-4.76s.07-3.18.1-4.77,0-3.21.07-4.87c-.74.3-1.5.6-2.22.92s-1.48.61-2.24.94c.06,2.92.13,5.83.22,8.75S209.94,347.09,210,350Z"/><path class="cls-1" d="M214,360.13c-.27,0-.56,0-.85,0s-.58,0-.87,0a2.45,2.45,0,0,1-.71-.09.57.57,0,0,1-.37-.89.83.83,0,0,1,.34-.42.94.94,0,0,1,.42-.11,1.78,1.78,0,0,1,.47.08c.15.05.32.08.45.11l.66-1.47a.83.83,0,0,0-.52-.5,2.87,2.87,0,0,0-.86-.24,1.81,1.81,0,0,0-1.18.46,4.28,4.28,0,0,0-.94,1.12,6.52,6.52,0,0,0-.61,1.38,4.38,4.38,0,0,0-.2,1.26.82.82,0,0,0,.13.47,1.51,1.51,0,0,0,.38.42,2.45,2.45,0,0,0,.45.29,1.68,1.68,0,0,0,.48.12,2.51,2.51,0,0,1-.45.3l-.39.23a2.09,2.09,0,0,0-.37.26,2.19,2.19,0,0,0-.35.38l.27,1.14a4.87,4.87,0,0,1,1-.67,8.61,8.61,0,0,1,1.15-.53c.4-.14.81-.27,1.22-.39s.81-.22,1.17-.28l.82-2.49A2.62,2.62,0,0,0,214,360.13Z"/><path class="cls-1" d="M226.32,352c.56.57,1.09,1.11,1.62,1.63s1.08,1.11,1.65,1.67l1.64-1.64c.51-.52,1.06-1.08,1.65-1.66l-3.29-3.29Z"/><path class="cls-1" d="M236.49,352c.56.57,1.08,1.11,1.64,1.63s1.06,1.11,1.63,1.67c.55-.56,1.1-1.1,1.62-1.64s1.07-1.08,1.66-1.66l-3.28-3.29Z"/><path class="cls-1" d="M246.65,352l1.62,1.63,1.65,1.67,1.64-1.64c.51-.52,1.06-1.08,1.65-1.66l-3.29-3.29Z"/><path class="cls-1" d="M268.16,338.71l1.65-1.67-3.29-3.27L263.21,337l3.31,3.3C267.11,339.78,267.64,339.24,268.16,338.71Z"/><path class="cls-1" d="M302.55,342.51a6.37,6.37,0,0,0-2.17-1.66,5.88,5.88,0,0,0-2.34-.51,6.72,6.72,0,0,0-2.49.53,12.2,12.2,0,0,0-2.52,1.45,17.26,17.26,0,0,0-2.38,2.13,20.43,20.43,0,0,0-2.1,2.62l.31-16.43c-.77.3-1.51.63-2.22.92l-2.22.94c.07,2.94.15,5.91.21,8.93s.15,6,.21,8.92h-6.61a21.2,21.2,0,0,0-.57-4.94,17.67,17.67,0,0,0-1.73-4.49l-1.9,1.29-1.9,1.28a23,23,0,0,1,1.22,3.83,16.06,16.06,0,0,1,.39,3,9.69,9.69,0,0,1-.36,3.72,8.65,8.65,0,0,1-1.49,2.79,6.68,6.68,0,0,1-2.29,1.75,6.51,6.51,0,0,1-2.77.6,7,7,0,0,1-4.26-1.47,8.41,8.41,0,0,1-1.66-1.84,8.5,8.5,0,0,1-1.15-2.59,13.37,13.37,0,0,1-.44-2.22,11.36,11.36,0,0,1-.07-2,14.88,14.88,0,0,1,.25-2.05c.14-.67.3-1.42.48-2.21l-.88.31a2.39,2.39,0,0,0-.79.44,7.58,7.58,0,0,0-.59,1c-.19.4-.38.82-.56,1.29s-.32,1-.46,1.49-.27,1-.37,1.48-.19,1-.24,1.39a6.72,6.72,0,0,0-.1,1.05,9.62,9.62,0,0,0,.4,2.8,10.4,10.4,0,0,0,1.1,2.55,10.57,10.57,0,0,0,3.83,3.8,9.66,9.66,0,0,0,2.52,1.07,9.32,9.32,0,0,0,2.75.38,10.82,10.82,0,0,0,3.9-.69,10.47,10.47,0,0,0,3.13-1.86,11.88,11.88,0,0,0,2.34-2.78A16.55,16.55,0,0,0,277.5,355h27.8c.08-.84.18-1.68.29-2.47s.2-1.64.28-2.49a22.07,22.07,0,0,0-1.45-4.52A12.26,12.26,0,0,0,302.55,342.51Zm-1,7.84H289.44c.61-.67,1.24-1.33,1.9-2a22.78,22.78,0,0,1,2-1.77,11.49,11.49,0,0,1,2-1.27,4.27,4.27,0,0,1,1.95-.48,3.31,3.31,0,0,1,1.34.27,3.71,3.71,0,0,1,1.23.87,6.82,6.82,0,0,1,1.07,1.57,13.71,13.71,0,0,1,.87,2.35Z"/><path class="cls-1" d="M328.93,332.5c.05,2.94.13,5.91.19,8.93s.14,6,.2,8.92h-7.4a17.08,17.08,0,0,0-.45-3.68,10.16,10.16,0,0,0-1.28-3.14,6.81,6.81,0,0,0-2.17-2.17,6,6,0,0,0-3.18-.81,5.38,5.38,0,0,0-2.79.77,7.9,7.9,0,0,0-2.22,2.06,9.39,9.39,0,0,0-1.47,2.83,9.56,9.56,0,0,0-.54,3.14,7,7,0,0,0,.68,3,5.63,5.63,0,0,0,2.06,2.33,2.45,2.45,0,0,0,.48.18,6.86,6.86,0,0,0,.71.14h5.71a8.54,8.54,0,0,1-3.55,4.34,12.85,12.85,0,0,1-6.09,1.69.61.61,0,0,0,0,.15c0,.09,0,.18,0,.29s0,.19,0,.29a1.38,1.38,0,0,1,0,.14,13,13,0,0,0,2.69,1.67,6.88,6.88,0,0,0,2.64.58,5.77,5.77,0,0,0,3-.87,10.8,10.8,0,0,0,3-2.85,9.64,9.64,0,0,0,1.43-2.39,19.7,19.7,0,0,0,1-3H333v-5l.34-19.36c-.77.3-1.5.63-2.21.92Zm-11.37,17.85H313a2.24,2.24,0,0,1-1.22-1,3.41,3.41,0,0,1-.37-1.56,4.55,4.55,0,0,1,.18-1.25,5.14,5.14,0,0,1,.55-1.13,3.8,3.8,0,0,1,.88-.82,2,2,0,0,1,1.12-.32,2.9,2.9,0,0,1,1.83.53,4.07,4.07,0,0,1,1.07,1.31,5.65,5.65,0,0,1,.52,1.63,9.16,9.16,0,0,1,.12,1.48A4.55,4.55,0,0,1,317.56,350.35Z"/><path class="cls-1" d="M339.41,331.56l-2.24.94c.07,2.92.14,5.83.23,8.75s.16,5.84.23,8.75l0,5h.86c.5-.89,1-1.74,1.43-2.56s.92-1.68,1.39-2.55q0-2.47.09-4.86c0-1.59.06-3.17.08-4.76s.07-3.18.09-4.77.07-3.21.1-4.87C340.89,330.94,340.16,331.26,339.41,331.56Z"/><path class="cls-2" d="M72.78,310.22,71.33,306H63l-1.43,4.22h-3.4l7.71-21h2.57l7.7,21ZM67.26,294,64,303.28h6.47Z"/><path class="cls-2" d="M153.36,308.25a7.55,7.55,0,0,1-5.44,2h-7.39v-21h7.39a7.55,7.55,0,0,1,5.44,2c2.27,2.27,2.12,5.34,2.12,8.38s.15,6.43-2.12,8.7m-2.19-14.78a4.57,4.57,0,0,0-3.57-1.42h-3.88v15.3h3.88a4.6,4.6,0,0,0,3.57-1.41c1.08-1.23,1.11-3.49,1.11-6.39s0-4.87-1.11-6.08"/><polygon class="cls-2" points="160.21 310.22 160.21 289.19 173.66 289.19 173.66 292.05 163.4 292.05 163.4 298.2 172.15 298.2 172.15 301.03 163.4 301.03 163.4 307.35 173.66 307.35 173.66 310.22 160.21 310.22"/><polygon class="cls-2" points="184.81 310.22 182.34 310.22 175.42 289.19 178.73 289.19 183.58 304.49 188.43 289.19 191.79 289.19 184.81 310.22"/><polygon class="cls-2" points="194.69 310.22 194.69 289.19 208.13 289.19 208.13 292.05 197.88 292.05 197.88 298.2 206.61 298.2 206.61 301.03 197.88 301.03 197.88 307.35 208.13 307.35 208.13 310.22 194.69 310.22"/><polygon class="cls-2" points="212.5 310.22 212.5 289.19 215.69 289.19 215.69 307.35 225.83 307.35 225.83 310.22 212.5 310.22"/><path class="cls-2" d="M241.05,308.16a7.63,7.63,0,0,1-5.56,2.24,7.52,7.52,0,0,1-5.52-2.24c-2.07-2.07-2-4.42-2-8.47s0-6.35,2-8.43a7.44,7.44,0,0,1,5.52-2.24,7.55,7.55,0,0,1,5.56,2.24c2.07,2.08,2,4.4,2,8.43s.07,6.4-2,8.47m-2.42-15a4.44,4.44,0,0,0-6.28,0c-1,1.13-1.23,2.31-1.23,6.52s.2,5.43,1.23,6.54a4.42,4.42,0,0,0,6.28,0c1-1.11,1.24-2.29,1.24-6.54s-.21-5.39-1.24-6.52"/><path class="cls-2" d="M255.76,302H251v8.27h-3.18v-21h8c4.11,0,6.73,2.72,6.73,6.39s-2.62,6.37-6.73,6.37m-.17-9.9H251v7h4.62c2.2,0,3.71-1.25,3.71-3.48a3.38,3.38,0,0,0-3.71-3.53"/><polygon class="cls-2" points="281.73 310.22 281.73 296.17 276.89 306.41 274.52 306.41 269.56 296.17 269.56 310.22 266.37 310.22 266.37 289.19 269.56 289.19 275.71 302.28 281.73 289.19 284.92 289.19 284.92 310.22 281.73 310.22"/><polygon class="cls-2" points="290.4 310.22 290.4 289.19 303.83 289.19 303.83 292.05 293.59 292.05 293.59 298.2 302.32 298.2 302.32 301.03 293.59 301.03 293.59 307.35 303.83 307.35 303.83 310.22 290.4 310.22"/><polygon class="cls-2" points="321.12 310.22 311.4 295.41 311.4 310.22 308.21 310.22 308.21 289.19 311.14 289.19 320.86 303.96 320.86 289.19 324.05 289.19 324.05 310.22 321.12 310.22"/><polygon class="cls-2" points="336.65 292.05 336.65 310.22 333.47 310.22 333.47 292.05 327.67 292.05 327.67 289.2 342.45 289.2 342.45 292.05 336.65 292.05"/><path class="cls-2" d="M85.7,289.2v12.26c0,3.88,2.13,7.26,6.07,8.07a21.29,21.29,0,0,0,6.47.17c7-.95,7.09-7.07,4.29-10.87.68-1.64,2.77-3.86,1.39-6-.38-.56-1.36-.69-1.45.34a3.2,3.2,0,0,1-1.56,2.49l-2.23,1.69v3.67c0,3.68-6.42,3.9-6.46,0V289.2Zm12.93,7.26v-7.13h6.46v1.85c1.51-1.07,3.48-1.56,6.49-1.71h8.78v5.23l-5.21.08a2.22,2.22,0,0,0-2-1.64,10.21,10.21,0,0,0-4.08.1,2,2,0,0,0-1.47,2.74c-2.34-.52-3.28,1.9-1.68,3a1.68,1.68,0,0,0,.89,2.88,1.93,1.93,0,0,0,1.23,2.62l2.22.47c.62.1.73.36.38,1.15,1.39-.39,2.76-.56,3.38-1.62h6.26v5.14h-7.61c-4.65,0-7.4-1.43-8.47-2.72,1.26-1.5,1.09-5-.8-8.41.6-.89,2.34-3.69,1.31-5.66-.74-1.42-2.56-1.72-2.77.12a2.53,2.53,0,0,1-1.11,1.89Zm8.28,0h6.6a1.1,1.1,0,0,1,0,2.19h-6.6a1.1,1.1,0,1,1,0-2.19m.12,2.74h6.22a1,1,0,0,1,0,2.07H107a1,1,0,0,1,0-2.07m2.24-5.36a10.76,10.76,0,0,1,4,0,1.12,1.12,0,0,1,1,1,1,1,0,0,1-1,1h-4a1,1,0,0,1-1-1,1.11,1.11,0,0,1,1-1M109,302a8.81,8.81,0,0,1,3.38.32c1.91.73.71,2.62-.75,3.14.17-.36-.11-1-1-1.14l-2-.37c-.91-.13-1.3-.59-1.34-1.1,0-.82,1.14-.83,1.7-.85m14-12.44h6.29v20.28H123Z"/><path class="cls-1" d="M167.25,142.85a7.56,7.56,0,0,0-3-.61,7.2,7.2,0,0,0-3,.61,7.72,7.72,0,0,0-2.43,1.7,8.64,8.64,0,0,0-1.67,2.49,7.64,7.64,0,0,0,0,6,8,8,0,0,0,1.67,2.46,8.34,8.34,0,0,0,2.43,1.67,7.22,7.22,0,0,0,3,.64,7.58,7.58,0,0,0,3-.64,8.58,8.58,0,0,0,2.48-1.67,7.58,7.58,0,0,0,1.7-2.46,7.53,7.53,0,0,0,0-6,8.16,8.16,0,0,0-1.7-2.49A7.94,7.94,0,0,0,167.25,142.85Z"/><path class="cls-1" d="M303.5,172.07c-22.32,0-40,17-40,38.81s17.67,38.81,40,38.81,40-17,40-38.81S325.81,172.07,303.5,172.07Zm0,64.55A25.75,25.75,0,1,1,329,210.88,25.89,25.89,0,0,1,303.5,236.62Z"/><path class="cls-1" d="M129.08,173.61h-1.92a5.16,5.16,0,0,0-2.09.44,5.73,5.73,0,0,0-1.74,1.15,5.24,5.24,0,0,0-1.19,1.74,5.59,5.59,0,0,0-.44,2.18v7.53h2v0h16.51l-26.77,61.45h14.73l5.69-14h31.56l5.7,14H186l-31.57-74.52Zm9.78,48.18,10.93-26.7,10.79,26.7Z"/><path class="cls-1" d="M245.58,208.39c5.59-2.49,9.15-8,9.15-14.83,0-13.29-10.1-19.95-21.48-19.95H193.49v29.8H189v0h-2.33a5.2,5.2,0,0,0-2.08.44A5.64,5.64,0,0,0,182.8,205a4.7,4.7,0,0,0-1.19,1.74,5.52,5.52,0,0,0-.44,2.16v7.52h7.33l5,0v31.69H236c13.05,0,22.9-8.3,22.9-21.59C258.88,217.05,253.31,210.88,245.58,208.39Zm-38.31-21.71h24.44c6,0,9.24,3.9,9.24,8.31s-3.2,8.42-9.24,8.42H207.27Zm27.16,48.41H207.27V216.44h27.16c6.17,0,10.68,4.06,10.68,9.39S240.6,235.09,234.43,235.09Z"/><path class="cls-1" d="M114.7,173.61H62.41v0a5,5,0,0,0-1.77.4,5.77,5.77,0,0,0-1.75,1.15,5.55,5.55,0,0,0-1.19,1.74,5.75,5.75,0,0,0-.42,2.18v7.28l-.11.28h22v61.45H92.86V186.68H114.7Z"/><path class="cls-1" d="M63.6,132.08h36.83l-.56,1.58a21.2,21.2,0,0,1-3.26,6.15,24.57,24.57,0,0,1-4.41,4.36,35,35,0,0,1-4.93,3.11l-4.73,2.42a57.48,57.48,0,0,0-7.37,4.61,24.45,24.45,0,0,0-6,6.44,20.58,20.58,0,0,0-1.07,1.8,15.3,15.3,0,0,0,2.45-.92c1.35-.63,2.79-1.32,4.4-2.1s3.25-1.55,5-2.36a36.23,36.23,0,0,1,5-1.95c3-.9,6.1-1.88,9-2.93a39.82,39.82,0,0,0,8.19-4,30.71,30.71,0,0,0,6.88-6.08,29.42,29.42,0,0,0,5-9.35l.29-.79h53.22a6.65,6.65,0,0,0,2.49-.49,6.54,6.54,0,0,0,2.06-1.38,6.65,6.65,0,0,0,1.37-2c.15-.34.27-.68.36-.94l.14-.39v-39c0-3.61-.72-5.08-1.87-6.27a6.08,6.08,0,0,0-4.55-1.91h-9.34v38.09H116.23V86.24a6.43,6.43,0,0,0-1.9-4.7,6,6,0,0,0-4.54-1.91H63.6a6.06,6.06,0,0,0-4.54,1.91c-1.16,1.19-1.9,2.66-1.9,6.27v39c.07.13.12.28.17.39a8.58,8.58,0,0,0,.34.94,6.65,6.65,0,0,0,1.37,2,6.38,6.38,0,0,0,4.56,1.87ZM73,92.6h27.34v25.12H73Z"/><path class="cls-1" d="M187.37,128.17a6.51,6.51,0,0,0,1.38,2,6.38,6.38,0,0,0,2.05,1.38,6.93,6.93,0,0,0,2.58.49H331.74a6.47,6.47,0,0,0,4.61-1.9,5.85,5.85,0,0,0,1.39-2,5.34,5.34,0,0,0,.25-.58,5.55,5.55,0,0,1,.27-.62V88.6c0-4.3-.69-5.84-1.89-7.06a6.16,6.16,0,0,0-4.63-1.91H252.57V52.85h-9.36a6.51,6.51,0,0,0-2.57.51,5.92,5.92,0,0,0-2,1.39,6.91,6.91,0,0,0-1.4,2.09,5.86,5.86,0,0,0-.5,2.44v58.44h-34V52.85h-9.34a6.6,6.6,0,0,0-2.58.51,6,6,0,0,0-2,1.38,7.28,7.28,0,0,0-1.4,2.1c-.34.77-.5,1.6-.5,4v66c.06.13.09.26.15.39A7.65,7.65,0,0,0,187.37,128.17Zm65.2-35.73H322.3v25.28H252.57Z"/></svg>