<?xml version="1.0" encoding="utf-8"?>
<!-- Generator: Adobe Illustrator 24.3.0, SVG Export Plug-In . SVG Version: 6.00 Build 0)  -->
<svg version="1.1" id="Layer_1" xmlns="http://www.w3.org/2000/svg" xmlns:xlink="http://www.w3.org/1999/xlink" x="0px" y="0px"
	 viewBox="0 0 306.6 313" style="enable-background:new 0 0 306.6 313;" xml:space="preserve">
<style type="text/css">
	.st0{fill:#603813;}
	.st1{fill:#CD8A2A;}
	.st2{display:none;}
	.st3{display:inline;}
	.st4{fill:#FFFFFF;}
	.st5{fill:#CE8929;}
</style>
<g>
	<g>
		<polygon class="st4" points="0,1.9 4,1.9 4,13.6 6.2,13.6 6.2,1.9 10.1,1.9 10.1,0.1 0,0.1 		"/>
		<path class="st4" d="M23.1,0.1l-3.9,10.8h-0.1L15.4,0.1h-3.1v13.6h2V7c0-1.5-0.1-3.1-0.2-4.7h0.1l3.9,11.4h2l4-11.4h0.1
			c0,0.2-0.1,0.9-0.1,2c-0.1,1.1-0.1,2-0.1,2.7v6.7h2.1V0.1L23.1,0.1L23.1,0.1z"/>
	</g>
	<g>
		<path class="st4" d="M18.1,217.8c0,0,4.5-0.1,12.4-0.3c7.9-0.1,19.2-0.3,32.7-0.6c13.5-0.1,29.3-0.3,46.2-0.5
			c16.9-0.1,34.9-0.1,53-0.2c18,0.1,36.1,0.1,53,0.2c16.9,0.1,32.7,0.4,46.2,0.5c13.5,0.2,24.8,0.4,32.7,0.6
			c7.9,0.2,12.4,0.3,12.4,0.3s-4.5,0.1-12.4,0.3c-7.9,0.1-19.2,0.3-32.7,0.6c-13.5,0.1-29.3,0.4-46.2,0.5c-16.9,0.1-34.9,0.1-53,0.2
			c-18-0.1-36.1-0.1-53-0.2c-16.9-0.2-32.7-0.3-46.2-0.5c-13.5-0.2-24.8-0.4-32.7-0.6C22.6,217.9,18.1,217.8,18.1,217.8"/>
		<g>
			<path class="st4" d="M47.8,288.1c-0.6,0.4-1.3,0.9-1.8,1.3c-0.6,0.4-1.2,0.8-1.9,1.2c0.5,0.9,0.8,1.7,1,2.6
				c0.2,0.9,0.3,1.7,0.3,2.4c0,0.3,0,0.7-0.1,1c0,0.3-0.1,0.7-0.2,1H37v0h-1.7c0-1.3-0.2-2.5-0.5-3.7c-0.3-1.2-0.7-2.2-1.3-3.1
				c-0.6-0.9-1.3-1.6-2.2-2.2c-0.9-0.5-1.9-0.8-3.2-0.8c-1,0-1.9,0.3-2.8,0.8c-0.9,0.5-1.6,1.2-2.2,2.1c-0.6,0.8-1.1,1.8-1.5,2.8
				c-0.3,1-0.5,2.1-0.5,3.1c0,1.1,0.2,2.1,0.7,3c0.4,1,1.1,1.7,2,2.3c0.1,0.1,0.3,0.1,0.5,0.2c0.2,0.1,0.4,0.1,0.7,0.1h5.7
				c-0.8,1.9-1.9,3.4-3.5,4.3c-1.6,1-3.7,1.6-6.1,1.7c0,0,0,0.1,0,0.1c0,0.1,0,0.2,0,0.3c0,0.1,0,0.2,0,0.3c0,0.1,0,0.1,0,0.1
				c0.9,0.7,1.8,1.3,2.7,1.7c0.9,0.4,1.8,0.6,2.6,0.6c1,0,2-0.3,3-0.9c1-0.6,2-1.5,3-2.8c0.5-0.7,1-1.4,1.4-2.4c0.4-0.9,0.8-1.9,1-3
				H37v0h11.9c0.1-0.9,0.3-1.9,0.3-2.8c0.1-0.9,0.1-1.9,0.1-2.9c0-1.4-0.1-2.8-0.3-4.3C48.7,290.7,48.3,289.4,47.8,288.1z
				 M30.9,297.5h-4.6c-0.5-0.2-0.9-0.5-1.2-1c-0.3-0.5-0.4-1-0.4-1.6c0-0.4,0.1-0.8,0.2-1.3c0.1-0.4,0.3-0.8,0.5-1.1
				c0.2-0.3,0.5-0.6,0.9-0.8c0.3-0.2,0.7-0.3,1.1-0.3c0.8,0,1.4,0.2,1.8,0.5c0.5,0.4,0.8,0.8,1.1,1.3c0.3,0.5,0.4,1.1,0.5,1.6
				c0.1,0.6,0.1,1.1,0.1,1.5C31,296.8,31,297.1,30.9,297.5z"/>
			<path class="st4" d="M40.5,309.6l3.3,3.3c0.6-0.6,1.1-1.1,1.6-1.7c0.5-0.5,1.1-1.1,1.7-1.7l-3.3-3.3L40.5,309.6z"/>
			<path class="st4" d="M106.8,289.6c-0.7-0.7-1.4-1.3-2.1-1.6c-0.7-0.3-1.5-0.5-2.2-0.5c-0.8,0-1.6,0.1-2.4,0.4
				c-0.8,0.3-1.6,0.7-2.4,1.2c-0.8,0.5-1.6,1.1-2.4,1.8c-0.8,0.7-1.5,1.4-2.3,2.1c-0.7,0.7-1.4,1.5-2.1,2.2
				c-0.7,0.8-1.3,1.5-1.8,2.2h-1.8c-0.3-0.9-0.6-1.8-0.9-2.7c-0.3-0.9-0.5-1.9-0.6-3c-0.6,0.3-1.2,0.5-1.7,0.8
				c-0.5,0.2-1.1,0.5-1.7,0.8c0.1,0.8,0.3,1.6,0.4,2.3c0.2,0.7,0.4,1.3,0.7,1.9h-2.8v0h-3.3c-1-1.5-2-2.9-2.9-4.1
				c-0.9-1.2-1.8-2.3-2.7-3.1c-0.9-0.8-1.8-1.5-2.6-2c-0.9-0.5-1.8-0.7-2.7-0.7c-0.6,0-1.2,0.1-1.7,0.3c-0.5,0.2-0.9,0.5-1.3,0.8
				c-0.4,0.3-0.7,0.7-0.9,1.2c-0.3,0.5-0.5,0.9-0.6,1.4c0,0.1,0.1,0.2,0.1,0.4c0.1,0.2,0.1,0.3,0.2,0.5c0.1,0.2,0.1,0.3,0.2,0.4
				c0,0.1,0.1,0.1,0.1,0.1c0.1-0.1,0.4-0.2,0.6-0.4c0.2-0.2,0.5-0.3,0.8-0.4c0.3-0.1,0.6-0.2,1-0.3c0.3-0.1,0.7-0.1,1.1-0.1
				c0.3,0,0.6,0,0.9,0.1c0.3,0.1,0.6,0.2,0.9,0.3c0.5,0.3,1,0.6,1.5,1c0.4,0.4,0.9,0.9,1.3,1.3c0.4,0.5,0.8,1,1.1,1.6
				c0.3,0.5,0.7,1.1,1,1.6H59.1v0h-2.9l0.3-19.7c-0.8,0.3-1.5,0.6-2.2,0.9c-0.7,0.3-1.4,0.6-2.2,0.9c0.1,2.9,0.2,5.8,0.2,8.8
				c0.1,2.9,0.1,5.8,0.2,8.8v5h7.9v0h18.8h1.5h29c0.1-0.8,0.2-1.7,0.3-2.5c0.1-0.8,0.2-1.7,0.3-2.5c-0.5-1.8-1.1-3.3-1.6-4.5
				C108.1,291.4,107.5,290.4,106.8,289.6z M106,297.5H94c0.6-0.7,1.2-1.3,1.9-2c0.7-0.7,1.3-1.3,2-1.8c0.7-0.5,1.4-0.9,2-1.3
				c0.7-0.3,1.3-0.5,1.9-0.5c0.5,0,0.9,0.1,1.3,0.3c0.4,0.2,0.9,0.5,1.2,0.9c0.4,0.4,0.8,0.9,1.1,1.6c0.3,0.7,0.6,1.4,0.9,2.3
				L106,297.5z"/>
			<path class="st4" d="M113,279.6c0.1,2.9,0.1,5.8,0.2,8.8c0.1,2.9,0.2,5.8,0.2,8.8l0,5h0.9c0.5-0.9,0.9-1.7,1.4-2.6
				c0.5-0.8,0.9-1.7,1.4-2.6c0-1.6,0-3.3,0.1-4.9c0-1.6,0.1-3.2,0.1-4.8c0-1.6,0.1-3.2,0.1-4.8c0-1.6,0.1-3.2,0.1-4.9
				c-0.8,0.3-1.5,0.6-2.2,0.9C114.5,279,113.8,279.3,113,279.6z"/>
			<path class="st4" d="M117.1,273.2c-0.3,0-0.6,0.1-0.8,0.1c-0.3,0-0.6,0-0.9,0c-0.3,0-0.5,0-0.7-0.1c-0.2-0.1-0.3-0.2-0.4-0.3
				c-0.1-0.1-0.1-0.3,0-0.6c0.1-0.2,0.2-0.4,0.3-0.4c0.1-0.1,0.3-0.1,0.4-0.1c0.2,0,0.3,0,0.5,0.1c0.2,0,0.3,0.1,0.5,0.1l0.6-1.5
				c-0.1-0.2-0.2-0.4-0.5-0.5c-0.3-0.1-0.5-0.2-0.9-0.2c-0.4,0-0.8,0.2-1.2,0.5c-0.4,0.3-0.7,0.7-0.9,1.1c-0.3,0.4-0.5,0.9-0.6,1.4
				c-0.1,0.5-0.2,0.9-0.2,1.2c0,0.2,0.1,0.3,0.1,0.5c0.1,0.2,0.2,0.3,0.4,0.4c0.1,0.1,0.3,0.2,0.5,0.3c0.2,0.1,0.3,0.1,0.5,0.1
				c-0.2,0.1-0.3,0.2-0.5,0.3c-0.1,0.1-0.3,0.1-0.4,0.2c-0.1,0.1-0.2,0.1-0.4,0.2c-0.1,0.1-0.2,0.2-0.4,0.4l0.3,1.1
				c0.3-0.3,0.6-0.5,1-0.7c0.4-0.2,0.8-0.4,1.1-0.5c0.4-0.2,0.8-0.3,1.2-0.4c0.4-0.1,0.8-0.2,1.2-0.3l0.8-2.5
				C117.6,273.2,117.4,273.2,117.1,273.2z"/>
			<polygon class="st4" points="145,281.3 141.7,278 138.4,281.3 141.7,284.5 			"/>
			<path class="st4" d="M164.6,293.4c-0.9-1.2-1.8-2.3-2.7-3.1c-0.9-0.8-1.8-1.5-2.7-2c-0.9-0.5-1.8-0.7-2.7-0.7
				c-0.6,0-1.2,0.1-1.6,0.3c-0.5,0.2-0.9,0.5-1.3,0.8c-0.4,0.3-0.7,0.7-0.9,1.2c-0.3,0.5-0.5,0.9-0.6,1.4c0,0.3,0.1,0.5,0.1,0.7
				c0.1,0.2,0.1,0.3,0.2,0.4c0.1,0.1,0.1,0.2,0.2,0.2c0.1,0,0.1,0.1,0.1,0.1c0.1-0.1,0.4-0.3,0.6-0.4c0.2-0.1,0.5-0.3,0.8-0.4
				c0.3-0.1,0.6-0.2,0.9-0.3c0.3-0.1,0.7-0.1,1-0.1c0.3,0,0.6,0,0.9,0.1c0.3,0.1,0.6,0.2,1,0.3c0.5,0.3,1,0.6,1.5,1
				c0.4,0.4,0.9,0.9,1.2,1.3c0.4,0.5,0.8,1,1.1,1.6c0.4,0.5,0.7,1.1,1,1.6h-14.3v0h-2.1v-0.9c0-1.5-0.1-2.9-0.3-4.3
				c-0.3-1.4-0.6-2.8-1.2-4.2c-0.6,0.5-1.3,0.9-1.8,1.3c-0.6,0.4-1.2,0.8-1.9,1.2c0.4,0.9,0.8,1.7,1,2.6c0.2,0.9,0.3,1.7,0.3,2.4
				c0,0.3,0,0.7-0.1,1c-0.1,0.3-0.1,0.7-0.2,1h-4.1h-1.1h-3.1l0.3-19.7c-0.8,0.3-1.5,0.6-2.2,0.9c-0.7,0.3-1.4,0.6-2.2,0.9
				c0.1,2.9,0.2,5.8,0.2,8.8c0.1,2.9,0.1,5.8,0.2,8.8v5h6.8h1.1h12v0h18.9v-4.7h-1.3C166.5,296,165.5,294.6,164.6,293.4z"/>
			<path class="st4" d="M172.1,297.1l0,5h0.9c0.5-0.9,0.9-1.7,1.4-2.6c0.5-0.8,0.9-1.7,1.4-2.6c0-1.6,0.1-3.3,0.1-4.9
				c0-1.6,0.1-3.2,0.1-4.8c0-1.6,0.1-3.2,0.1-4.8c0-1.6,0-3.2,0.1-4.9c-0.7,0.3-1.5,0.6-2.2,0.9c-0.7,0.3-1.5,0.6-2.2,0.9
				c0.1,2.9,0.1,5.8,0.2,8.8C171.9,291.3,172,294.2,172.1,297.1z"/>
			<path class="st4" d="M176.1,307.3c-0.3,0-0.6,0-0.9,0c-0.3,0-0.6,0-0.9,0c-0.3,0-0.5,0-0.7-0.1c-0.2-0.1-0.3-0.2-0.4-0.3
				c-0.1-0.1-0.1-0.3,0-0.6c0.1-0.2,0.2-0.3,0.3-0.4c0.1-0.1,0.3-0.1,0.4-0.1c0.2,0,0.3,0,0.5,0.1c0.2,0,0.3,0.1,0.4,0.1l0.7-1.5
				c-0.1-0.2-0.2-0.4-0.5-0.5c-0.3-0.1-0.5-0.2-0.9-0.2c-0.4,0-0.8,0.2-1.2,0.5c-0.4,0.3-0.7,0.7-0.9,1.1c-0.3,0.4-0.5,0.9-0.6,1.4
				c-0.1,0.5-0.2,0.9-0.2,1.3c0,0.2,0,0.3,0.1,0.5c0.1,0.2,0.2,0.3,0.4,0.4c0.1,0.1,0.3,0.2,0.5,0.3c0.2,0.1,0.3,0.1,0.5,0.1
				c-0.2,0.1-0.3,0.2-0.5,0.3c-0.1,0.1-0.2,0.1-0.4,0.2c-0.1,0.1-0.2,0.2-0.4,0.3c-0.1,0.1-0.2,0.2-0.3,0.4l0.3,1.1
				c0.3-0.2,0.6-0.5,0.9-0.7c0.4-0.2,0.8-0.4,1.2-0.5c0.4-0.1,0.8-0.3,1.2-0.4c0.4-0.1,0.8-0.2,1.2-0.3l0.8-2.5
				C176.6,307.2,176.3,307.2,176.1,307.3z"/>
			<path class="st4" d="M188.4,299.1c0.6,0.6,1.1,1.1,1.6,1.6c0.5,0.5,1.1,1.1,1.6,1.7c0.6-0.6,1.1-1.1,1.6-1.6
				c0.5-0.5,1.1-1.1,1.7-1.7l-3.3-3.3L188.4,299.1z"/>
			<path class="st4" d="M198.5,299.1c0.6,0.6,1.1,1.1,1.6,1.6c0.5,0.5,1.1,1.1,1.6,1.7c0.5-0.6,1.1-1.1,1.6-1.6
				c0.5-0.5,1.1-1.1,1.7-1.7l-3.3-3.3L198.5,299.1z"/>
			<path class="st4" d="M208.7,299.1c0.6,0.6,1.1,1.1,1.6,1.6c0.5,0.5,1.1,1.1,1.6,1.7c0.6-0.6,1.1-1.1,1.6-1.6
				c0.5-0.5,1.1-1.1,1.6-1.7l-3.3-3.3L208.7,299.1z"/>
			<path class="st4" d="M230.2,285.9c0.5-0.5,1.1-1.1,1.7-1.7l-3.3-3.3l-3.3,3.3l3.3,3.3C229.2,286.9,229.7,286.4,230.2,285.9z"/>
			<path class="st4" d="M264.6,289.7c-0.7-0.8-1.4-1.3-2.2-1.7c-0.8-0.3-1.6-0.5-2.3-0.5c-0.8,0-1.7,0.2-2.5,0.5
				c-0.9,0.4-1.7,0.8-2.5,1.4c-0.8,0.6-1.6,1.3-2.4,2.1c-0.8,0.8-1.5,1.7-2.1,2.6l0.3-16.4c-0.8,0.3-1.5,0.6-2.2,0.9
				c-0.7,0.3-1.4,0.6-2.2,0.9c0.1,2.9,0.2,5.9,0.2,8.9c0.1,3,0.2,6,0.2,8.9h-2.1v0h-4.5c0-1.7-0.2-3.4-0.6-4.9
				c-0.4-1.6-1-3.1-1.7-4.5c-0.7,0.4-1.3,0.9-1.9,1.3c-0.6,0.4-1.2,0.8-1.9,1.3c0.6,1.4,1,2.7,1.2,3.8c0.2,1.1,0.4,2.1,0.4,3
				c0.1,1.4,0,2.6-0.4,3.7c-0.4,1.1-0.8,2-1.5,2.8c-0.6,0.8-1.4,1.3-2.3,1.7c-0.9,0.4-1.8,0.6-2.8,0.6c-0.8,0-1.5-0.1-2.2-0.4
				c-0.7-0.2-1.4-0.6-2-1.1c-0.6-0.5-1.2-1.1-1.7-1.8c-0.5-0.7-0.9-1.6-1.1-2.6c-0.2-0.8-0.4-1.5-0.4-2.2c-0.1-0.7-0.1-1.4-0.1-2
				c0-0.7,0.1-1.3,0.2-2c0.1-0.7,0.3-1.4,0.5-2.2c-0.3,0.1-0.6,0.2-0.9,0.3c-0.3,0.1-0.6,0.2-0.8,0.4c-0.2,0.3-0.4,0.6-0.6,1
				c-0.2,0.4-0.4,0.8-0.6,1.3c-0.2,0.5-0.3,1-0.5,1.5c-0.1,0.5-0.3,1-0.4,1.5c-0.1,0.5-0.2,1-0.2,1.4c-0.1,0.4-0.1,0.8-0.1,1.1
				c0,1,0.1,1.9,0.4,2.8c0.3,0.9,0.6,1.8,1.1,2.6c0.5,0.8,1,1.5,1.7,2.1c0.7,0.6,1.4,1.2,2.2,1.7c0.8,0.5,1.6,0.8,2.5,1.1
				c0.9,0.3,1.8,0.4,2.7,0.4c1.4,0,2.7-0.2,3.9-0.7c1.2-0.5,2.2-1.1,3.1-1.9c0.9-0.8,1.7-1.7,2.3-2.8c0.6-1.1,1.1-2.2,1.5-3.4h3.4v0
				h24.4c0.1-0.8,0.2-1.7,0.3-2.5c0.1-0.8,0.2-1.6,0.3-2.5c-0.4-1.8-0.9-3.3-1.4-4.5C265.9,291.4,265.3,290.4,264.6,289.7z
				 M263.6,297.5h-12.1c0.6-0.7,1.2-1.3,1.9-2c0.7-0.7,1.4-1.3,2-1.8c0.7-0.5,1.4-0.9,2-1.3c0.7-0.3,1.3-0.5,1.9-0.5
				c0.5,0,0.9,0.1,1.3,0.3c0.4,0.2,0.8,0.5,1.2,0.9c0.4,0.4,0.7,0.9,1.1,1.6c0.3,0.7,0.6,1.4,0.9,2.3L263.6,297.5z"/>
			<path class="st4" d="M291,279.6c0.1,2.9,0.1,5.9,0.2,8.9c0.1,3,0.1,6,0.2,8.9h-5.7v0H284c0-1.3-0.2-2.5-0.4-3.7
				c-0.3-1.2-0.7-2.2-1.3-3.1c-0.6-0.9-1.3-1.6-2.2-2.2c-0.9-0.5-1.9-0.8-3.2-0.8c-1,0-1.9,0.3-2.8,0.8c-0.9,0.5-1.6,1.2-2.2,2.1
				c-0.6,0.8-1.1,1.8-1.5,2.8c-0.4,1-0.5,2.1-0.5,3.1c0,1.1,0.2,2.1,0.7,3c0.5,1,1.1,1.7,2.1,2.3c0.1,0.1,0.3,0.1,0.5,0.2
				c0.2,0.1,0.4,0.1,0.7,0.1h5.7c-0.7,1.9-1.9,3.4-3.6,4.3c-1.6,1-3.7,1.6-6.1,1.7c0,0,0,0.1,0,0.1c0,0.1,0,0.2,0,0.3
				c0,0.1,0,0.2,0,0.3c0,0.1,0,0.1,0,0.1c0.9,0.7,1.8,1.3,2.7,1.7c0.9,0.4,1.8,0.6,2.6,0.6c1,0,2-0.3,3-0.9c1-0.6,2-1.5,3-2.8
				c0.5-0.7,1-1.4,1.4-2.4c0.4-0.9,0.7-1.9,1-3h3.3v0h8.2v-5l0.3-19.4c-0.8,0.3-1.5,0.6-2.2,0.9C292.5,279,291.7,279.3,291,279.6z
				 M279.6,297.5h-4.6c-0.6-0.2-1-0.5-1.2-1c-0.2-0.5-0.4-1-0.4-1.6c0-0.4,0.1-0.8,0.2-1.3c0.1-0.4,0.3-0.8,0.5-1.1
				c0.3-0.3,0.5-0.6,0.9-0.8c0.3-0.2,0.7-0.3,1.1-0.3c0.8,0,1.4,0.2,1.8,0.5c0.5,0.4,0.8,0.8,1.1,1.3c0.3,0.5,0.4,1.1,0.5,1.6
				c0.1,0.6,0.1,1.1,0.1,1.5C279.7,296.8,279.7,297.1,279.6,297.5z"/>
			<path class="st4" d="M301.5,278.7c-0.7,0.3-1.5,0.6-2.2,0.9c0.1,2.9,0.1,5.8,0.2,8.8c0.1,2.9,0.2,5.8,0.2,8.8l0,5h0.9
				c0.5-0.9,1-1.7,1.4-2.6c0.5-0.8,0.9-1.7,1.4-2.6c0-1.6,0.1-3.3,0.1-4.9c0-1.6,0.1-3.2,0.1-4.8c0-1.6,0.1-3.2,0.1-4.8
				c0-1.6,0.1-3.2,0.1-4.9C302.9,278.1,302.2,278.4,301.5,278.7z"/>
		</g>
		<g>
			<path class="st1" d="M34.8,257.4l-1.4-4.2h-8.3l-1.4,4.2h-3.4l7.7-21h2.6l7.7,21H34.8z M29.3,241.1l-3.3,9.3h6.5L29.3,241.1z"/>
			<g>
				<path class="st1" d="M115.4,255.4c-1.3,1.3-3.2,2-5.4,2h-7.4v-21h7.4c2.2,0,4.1,0.7,5.4,2c2.3,2.3,2.1,5.3,2.1,8.4
					C117.5,249.7,117.7,253.1,115.4,255.4 M113.2,240.6c-0.9-1-2.1-1.4-3.6-1.4h-3.9v15.3h3.9c1.5,0,2.7-0.4,3.6-1.4
					c1.1-1.2,1.1-3.5,1.1-6.4C114.3,243.8,114.3,241.8,113.2,240.6"/>
			</g>
			<polygon class="st1" points="122.3,257.4 122.3,236.3 135.7,236.3 135.7,239.2 125.5,239.2 125.5,245.4 134.2,245.4 134.2,248.2 
				125.5,248.2 125.5,254.5 135.7,254.5 135.7,257.4 			"/>
			<polygon class="st1" points="146.9,257.4 144.4,257.4 137.5,236.3 140.8,236.3 145.6,251.6 150.5,236.3 153.8,236.3 			"/>
			<polygon class="st1" points="156.7,257.4 156.7,236.3 170.2,236.3 170.2,239.2 159.9,239.2 159.9,245.4 168.7,245.4 168.7,248.2 
				159.9,248.2 159.9,254.5 170.2,254.5 170.2,257.4 			"/>
			<polygon class="st1" points="174.6,257.4 174.6,236.3 177.7,236.3 177.7,254.5 187.9,254.5 187.9,257.4 			"/>
			<g>
				<path class="st1" d="M203.1,255.3c-1.4,1.4-3.3,2.2-5.6,2.2c-2.3,0-4.1-0.8-5.5-2.2c-2.1-2.1-2-4.4-2-8.5c0-4,0-6.4,2-8.4
					c1.4-1.5,3.3-2.2,5.5-2.2c2.2,0,4.1,0.8,5.6,2.2c2.1,2.1,2,4.4,2,8.4C205.1,250.9,205.2,253.2,203.1,255.3 M200.7,240.3
					c-0.7-0.8-1.9-1.3-3.1-1.3c-1.2,0-2.4,0.5-3.1,1.3c-1,1.1-1.2,2.3-1.2,6.5c0,4.2,0.2,5.4,1.2,6.5c0.7,0.8,1.9,1.3,3.1,1.3
					c1.2,0,2.4-0.5,3.1-1.3c1-1.1,1.2-2.3,1.2-6.5C201.9,242.6,201.7,241.4,200.7,240.3"/>
				<path class="st1" d="M217.8,249.1H213v8.3h-3.2v-21h8c4.1,0,6.7,2.7,6.7,6.4C224.5,246.4,221.9,249.1,217.8,249.1 M217.6,239.2
					H213v7h4.6c2.2,0,3.7-1.3,3.7-3.5C221.4,240.5,219.8,239.2,217.6,239.2"/>
			</g>
			<polygon class="st1" points="243.8,257.4 243.8,243.3 238.9,253.6 236.6,253.6 231.6,243.3 231.6,257.4 228.4,257.4 228.4,236.3 
				231.6,236.3 237.8,249.4 243.8,236.3 247,236.3 247,257.4 			"/>
			<polygon class="st1" points="252.5,257.4 252.5,236.3 265.9,236.3 265.9,239.2 255.6,239.2 255.6,245.4 264.4,245.4 264.4,248.2 
				255.6,248.2 255.6,254.5 265.9,254.5 265.9,257.4 			"/>
			<polygon class="st1" points="283.2,257.4 273.5,242.6 273.5,257.4 270.3,257.4 270.3,236.3 273.2,236.3 282.9,251.1 282.9,236.3 
				286.1,236.3 286.1,257.4 			"/>
			<polygon class="st1" points="298.7,239.2 298.7,257.4 295.5,257.4 295.5,239.2 289.7,239.2 289.7,236.3 304.5,236.3 304.5,239.2 
							"/>
			<path class="st1" d="M47.8,236.3v12.3c0,3.9,2.1,7.3,6.1,8.1c2.1,0.4,4.4,0.4,6.5,0.2c7-0.9,7.1-7.1,4.3-10.9
				c0.7-1.6,2.8-3.9,1.4-6c-0.4-0.6-1.4-0.7-1.5,0.3c-0.1,1.2-0.7,1.8-1.6,2.5l-2.2,1.7v3.7c0,3.7-6.4,3.9-6.5,0v-11.9H47.8z
				 M60.7,243.6v-7.1h6.5v1.8c1.5-1.1,3.5-1.6,6.5-1.7h8.8v5.2l-5.2,0.1c-0.2-0.8-0.8-1.4-2-1.6c-1.2-0.2-2.9-0.2-4.1,0.1
				c-1.1,0.3-1.8,1.1-1.5,2.7c-2.3-0.5-3.3,1.9-1.7,3c-1.2,1.2-0.2,2.7,0.9,2.9c-0.6,1.1,0.3,2.2,1.2,2.6l2.2,0.5
				c0.6,0.1,0.7,0.4,0.4,1.1c1.4-0.4,2.8-0.6,3.4-1.6h6.3v5.1h-7.6c-4.6,0-7.4-1.4-8.5-2.7c1.3-1.5,1.1-5-0.8-8.4
				c0.6-0.9,2.3-3.7,1.3-5.7c-0.7-1.4-2.6-1.7-2.8,0.1c-0.2,1-0.2,1.1-1.1,1.9L60.7,243.6z M69,243.6h6.6c0.6,0,1.1,0.5,1.1,1.1
				c0,0.6-0.5,1.1-1.1,1.1H69c-0.6,0-1.1-0.5-1.1-1.1C67.9,244.1,68.4,243.6,69,243.6 M69.1,246.4h6.2c0.6,0,1,0.5,1,1
				c0,0.6-0.5,1-1,1h-6.2c-0.6,0-1-0.5-1-1C68.1,246.9,68.5,246.4,69.1,246.4 M71.3,241c1.3-0.2,2.8-0.2,4,0c0.6,0.1,1,0.5,1,1
				c0,0.6-0.5,1-1,1h-4c-0.6,0-1-0.5-1-1C70.3,241.5,70.8,241.1,71.3,241 M71.1,249.1c1.4-0.1,2.6,0,3.4,0.3
				c1.9,0.7,0.7,2.6-0.8,3.1c0.2-0.4-0.1-1-1-1.1l-2-0.4c-0.9-0.1-1.3-0.6-1.3-1.1C69.3,249.1,70.5,249.1,71.1,249.1 M85,236.7h6.3
				V257H85V236.7z"/>
		</g>
		<g class="st2">
			<g class="st3">
				<path class="st0" d="M261.7,121.2c-21.3,0-38.2,16.2-38.2,37c0,20.8,16.9,37,38.2,37c21.3,0,38.2-16.2,38.2-37
					C299.8,137.5,283,121.2,261.7,121.2 M261.7,182.3c-12.5,0-23.8-10.5-23.8-24c0-13.5,11.3-24,23.8-24c12.5,0,23.8,10.5,23.8,24
					C285.5,171.8,274.2,182.3,261.7,182.3"/>
				<path class="st0" d="M115,121.2H89.8l0,0h-1.9c-0.7,0-1.4,0.1-2.1,0.4c-0.6,0.3-1.2,0.7-1.7,1.2c-0.5,0.5-0.9,1.1-1.2,1.7
					c-0.3,0.7-0.4,1.4-0.4,2.2v7.5h2l0,0h16.4l-25.4,61.1h13.4l5.7-13.9h32.5l5.7,13.9h13.6L115,121.2z M99.6,169.2l10.9-26.6
					l11.3,26.6H99.6z"/>
				<path class="st0" d="M193.4,121.2h-39.5v29.6h-4.5v0H147c-0.7,0-1.4,0.2-2.1,0.4c-0.7,0.3-1.2,0.7-1.7,1.2
					c-0.5,0.5-0.9,1.1-1.2,1.7c-0.3,0.7-0.4,1.4-0.4,2.1v7.5h7.2l5,0v31.5h42.2c13,0,22.8-8.3,22.8-21.5c0-9.4-5.5-15.6-13.2-18.1
					c5.6-2.5,9.1-7.9,9.1-14.7C214.8,127.9,204.7,121.2,193.4,121.2 M167.6,150.9v-16.6h24.3c6,0,9.2,3.9,9.2,8.3
					c0,4.5-3.2,8.4-9.2,8.4H167.6z M167.6,182.4v-18.5h27c6.1,0,10.6,4,10.6,9.3c0,5.2-4.5,9.2-10.6,9.2H167.6z"/>
				<path class="st0" d="M24.5,121.2c-0.7,0-1.4,0.1-2.1,0.4c-0.7,0.3-1.2,0.7-1.8,1.2c-0.5,0.5-0.9,1.1-1.2,1.7
					c-0.3,0.7-0.4,1.4-0.4,2.2v6.5l-0.7,1H19h7.8h13.3v61.1h13.7v-61.1h21.7v-13L24.5,121.2z"/>
				<path class="st0" d="M129.5,26.8h-9.3v38h-42V33.4c0-1.9-0.6-3.4-1.9-4.7c-1.3-1.3-2.7-1.9-4.5-1.9H25.6c-1.8,0-3.3,0.6-4.5,1.9
					c-1.2,1.2-1.9,2.7-1.9,6.3v39c0.1,0.1,0.1,0.3,0.2,0.4c0.1,0.3,0.2,0.6,0.3,0.9c0.3,0.8,0.8,1.5,1.4,2c0.6,0.6,1.3,1,2.1,1.4
					c0.8,0.3,1.6,0.5,2.5,0.5h36.8l-0.6,1.6c-0.8,2.4-1.9,4.5-3.3,6.1c-1.3,1.7-2.8,3.1-4.4,4.4c-1.6,1.2-3.2,2.2-4.9,3.1
					c-1.6,0.8-3.2,1.6-4.7,2.4c-2.6,1.3-5,2.9-7.4,4.6c-2.3,1.7-4.3,3.8-6,6.4c-0.6,0.9-1,1.8-1.2,2.2c0.5-0.1,6.2-3.7,14.9-7.1
					c4.4-1.7,6.7-2.5,9.9-3.3c3-0.7,6.9-2.6,9.4-4.2c2.5-1.6,4.8-3.6,6.9-6.1c2-2.4,3.7-5.6,5-9.3l0.3-0.8h53.1
					c0.9,0,1.7-0.2,2.5-0.5c0.8-0.3,1.5-0.8,2.1-1.4c0.6-0.6,1-1.3,1.4-2c0.2-0.3,0.3-0.7,0.4-0.9c0-0.1,0.1-0.3,0.1-0.4V35
					c0-3.6-0.7-5.1-1.9-6.3C132.8,27.4,131.3,26.8,129.5,26.8 M35.1,39.8h27.3v25.1H35.1V39.8z"/>
				<path class="st0" d="M214.3,0.1H205c-0.9,0-1.8,0.2-2.6,0.5c-0.8,0.3-1.5,0.8-2,1.4c-0.6,0.6-1.1,1.3-1.4,2.1
					c-0.3,0.8-0.5,1.6-0.5,2.4v58.4h-33.9V0.1h-9.3c-0.9,0-1.8,0.2-2.6,0.5c-0.8,0.3-1.5,0.8-2,1.4c-0.6,0.6-1.1,1.3-1.4,2.1
					c-0.3,0.8-0.5,1.6-0.5,4V74c0.1,0.1,0.1,0.3,0.1,0.4c0.1,0.3,0.2,0.6,0.4,0.9c0.3,0.8,0.8,1.5,1.4,2c0.6,0.6,1.3,1,2.1,1.4
					c0.8,0.3,1.7,0.5,2.6,0.5h138.2c0.9,0,1.7-0.2,2.5-0.5c0.8-0.3,1.5-0.8,2.1-1.4c0.6-0.6,1.1-1.2,1.4-2c0.1-0.2,0.2-0.4,0.2-0.6
					c0.1-0.2,0.2-0.4,0.3-0.6V35.8c0-4.3-0.7-5.8-1.9-7c-1.3-1.3-2.8-1.9-4.6-1.9h-79.1V0.1z M214.3,39.6H284v25.2h-69.6V39.6z"/>
				<path class="st0" d="M126.1,89.3c-1,0-2,0.2-3,0.6c-0.9,0.4-1.7,1-2.4,1.7c-0.7,0.7-1.2,1.6-1.7,2.5c-0.4,0.9-0.6,2-0.6,3
					c0,1.1,0.2,2.1,0.6,3c0.4,1,1,1.8,1.7,2.5c0.7,0.7,1.5,1.2,2.4,1.7c0.9,0.4,1.9,0.6,3,0.6c1.1,0,2.1-0.2,3-0.6
					c0.9-0.4,1.8-1,2.5-1.7c0.7-0.7,1.3-1.5,1.7-2.5c0.4-0.9,0.6-1.9,0.6-3c0-1.1-0.2-2.1-0.6-3c-0.4-0.9-1-1.8-1.7-2.5
					c-0.7-0.7-1.5-1.3-2.5-1.7C128.2,89.5,127.2,89.3,126.1,89.3"/>
			</g>
		</g>
		<g>
			<path class="st4" d="M129.3,90c-1-0.4-1.9-0.6-3-0.6c-1,0-2,0.2-3,0.6c-0.9,0.4-1.7,1-2.4,1.7c-0.7,0.7-1.3,1.6-1.7,2.5
				c-0.4,0.9-0.6,2-0.6,3c0,1.1,0.2,2.1,0.6,3c0.4,1,1,1.8,1.7,2.5c0.7,0.7,1.5,1.2,2.4,1.7c0.9,0.4,1.9,0.6,3,0.6
				c1.1,0,2.1-0.2,3-0.6c0.9-0.4,1.8-1,2.5-1.7c0.7-0.7,1.3-1.5,1.7-2.5c0.4-0.9,0.6-1.9,0.6-3c0-1.1-0.2-2.1-0.6-3
				c-0.4-0.9-1-1.8-1.7-2.5C131.1,91,130.2,90.4,129.3,90z"/>
			<path class="st4" d="M265.6,119.2c-22.3,0-40,17-40,38.8c0,21.8,17.7,38.8,40,38.8c22.3,0,40-17,40-38.8
				C305.5,136.2,287.9,119.2,265.6,119.2z M265.6,183.8c-13.4,0-25.5-11.3-25.5-25.7c0-14.5,12.1-25.7,25.5-25.7
				c13.4,0,25.5,11.3,25.5,25.7C291.1,172.5,279,183.8,265.6,183.8z"/>
			<path class="st4" d="M91.1,120.8L91.1,120.8l-1.9,0c-0.7,0-1.4,0.1-2.1,0.4c-0.6,0.3-1.2,0.7-1.7,1.2c-0.5,0.5-0.9,1.1-1.2,1.7
				c-0.3,0.7-0.4,1.4-0.4,2.2v7.5h2l0,0h16.5l-26.8,61.5h14.7l5.7-14h31.6l5.7,14H148l-31.6-74.5H91.1z M100.9,168.9l10.9-26.7
				l10.8,26.7H100.9z"/>
			<path class="st4" d="M207.6,155.5c5.6-2.5,9.1-8,9.1-14.8c0-13.3-10.1-19.9-21.5-19.9h-39.8v29.8H151v0h-2.3
				c-0.7,0-1.4,0.2-2.1,0.4c-0.7,0.3-1.2,0.7-1.7,1.2c-0.5,0.5-0.9,1.1-1.2,1.7c-0.3,0.7-0.4,1.4-0.4,2.2v7.5h7.3l5,0v31.7H198
				c13,0,22.9-8.3,22.9-21.6C220.9,164.2,215.4,158,207.6,155.5z M169.3,133.8h24.4c6,0,9.2,3.9,9.2,8.3c0,4.5-3.2,8.4-9.2,8.4
				h-24.4V133.8z M196.5,182.2h-27.2v-18.6h27.2c6.2,0,10.7,4.1,10.7,9.4C207.2,178.2,202.7,182.2,196.5,182.2z"/>
			<path class="st4" d="M76.8,120.8H24.5l0,0c-0.6,0-1.2,0.2-1.8,0.4c-0.7,0.3-1.2,0.7-1.7,1.2c-0.5,0.5-0.9,1.1-1.2,1.7
				c-0.3,0.7-0.4,1.4-0.4,2.2v7.3l-0.1,0.3h21.9v61.5h13.8v-61.5h21.8V120.8z"/>
			<path class="st4" d="M25.7,79.2h36.8l-0.6,1.6c-0.8,2.4-1.9,4.5-3.3,6.1c-1.3,1.7-2.8,3.1-4.4,4.4c-1.6,1.2-3.2,2.2-4.9,3.1
				c-1.6,0.8-3.2,1.6-4.7,2.4c-2.6,1.3-5,2.9-7.4,4.6c-2.3,1.7-4.3,3.8-6,6.4c-0.6,0.9-0.9,1.4-1.1,1.8c0.5-0.1,1.3-0.4,2.4-0.9
				c1.3-0.6,2.8-1.3,4.4-2.1c1.6-0.8,3.2-1.5,5-2.4c1.8-0.8,3.4-1.5,5-1.9c3-0.9,6.1-1.9,9-2.9c2.9-1,5.7-2.4,8.2-4
				c2.5-1.6,4.8-3.7,6.9-6.1c2-2.4,3.7-5.6,5-9.4l0.3-0.8h53.2c0.9,0,1.7-0.2,2.5-0.5c0.8-0.3,1.5-0.8,2.1-1.4c0.6-0.6,1-1.3,1.4-2
				c0.2-0.3,0.3-0.7,0.4-0.9c0-0.1,0.1-0.3,0.1-0.4V35c0-3.6-0.7-5.1-1.9-6.3c-1.3-1.3-2.7-1.9-4.5-1.9h-9.3v38.1H78.3V33.4
				c0-1.9-0.6-3.4-1.9-4.7c-1.3-1.3-2.7-1.9-4.5-1.9H25.7c-1.8,0-3.3,0.6-4.5,1.9c-1.2,1.2-1.9,2.7-1.9,6.3v39
				c0.1,0.1,0.1,0.3,0.2,0.4c0.1,0.3,0.2,0.6,0.3,0.9c0.3,0.8,0.8,1.5,1.4,2c0.6,0.6,1.3,1,2.1,1.4C24,79.1,24.8,79.2,25.7,79.2z
				 M35.1,39.7h27.3v25.1H35.1V39.7z"/>
			<path class="st4" d="M149.4,75.3c0.3,0.8,0.8,1.5,1.4,2c0.6,0.6,1.3,1,2.1,1.4c0.8,0.3,1.7,0.5,2.6,0.5h138.4
				c0.9,0,1.7-0.2,2.5-0.5c0.8-0.3,1.5-0.8,2.1-1.4c0.6-0.6,1.1-1.2,1.4-2c0.1-0.2,0.2-0.4,0.2-0.6c0.1-0.2,0.2-0.4,0.3-0.6V35.7
				c0-4.3-0.7-5.8-1.9-7.1c-1.3-1.3-2.8-1.9-4.6-1.9h-79.2V0h-9.4c-0.9,0-1.8,0.2-2.6,0.5c-0.8,0.3-1.5,0.8-2,1.4
				c-0.6,0.6-1.1,1.3-1.4,2.1c-0.3,0.8-0.5,1.6-0.5,2.4v58.4h-34V0h-9.3c-0.9,0-1.8,0.2-2.6,0.5c-0.8,0.3-1.5,0.8-2,1.4
				c-0.6,0.6-1.1,1.3-1.4,2.1c-0.3,0.8-0.5,1.6-0.5,4v66c0.1,0.1,0.1,0.3,0.1,0.4C149.2,74.6,149.3,75,149.4,75.3z M214.6,39.6h69.7
				v25.3h-69.7V39.6z"/>
		</g>
	</g>
</g>
</svg>
