<?xml version="1.0" encoding="utf-8"?>
<!-- Generator: Adobe Illustrator 26.5.0, SVG Export Plug-In . SVG Version: 6.00 Build 0)  -->
<svg version="1.1" id="Layer_1" xmlns="http://www.w3.org/2000/svg" xmlns:xlink="http://www.w3.org/1999/xlink" x="0px" y="0px"
	 viewBox="0 0 48.4 48.4" style="enable-background:new 0 0 48.4 48.4;" xml:space="preserve">
<style type="text/css">
	.st0{fill:#FFFFFF;}
</style>
<g id="Group_34" transform="translate(0)">
	<path id="Path_13" d="M24.2,48.4L24.2,48.4C10.8,48.4,0,37.6,0,24.2l0,0C0,10.8,10.8,0,24.2,0l0,0c13.4,0,24.2,10.8,24.2,24.2l0,0
		l0,0C48.4,37.6,37.6,48.4,24.2,48.4L24.2,48.4z"/>
</g>
<g>
	<g>
		<path class="st0" d="M14.9,37.1c-1.4,0-2.9,0-4.4,0c0.1-0.2,10-11.2,10.3-11.6C17.3,20.8,13.6,16,10,11.3c3,0,5.9,0,9,0
			c2,2.7,4.1,5.4,6.2,8.2c0.2-0.2,6.4-7.4,7.2-8.2c1.4,0,2.8,0,4.2,0c-0.1,0.1-8.9,10.3-9.4,10.9C28,23.1,38.4,37,38.4,37
			c0,0,0,0.1,0,0.1c-2.8,0-5.7,0-8.6,0c-2.2-2.9-4.5-5.9-6.8-8.9C22.6,28.6,15.3,36.7,14.9,37.1z M15,13.7c5.4,7,10.7,14,15.9,20.8
			c0.9,0,1.6,0,2.4,0c-5.3-7-10.5-13.9-15.7-20.8C16.8,13.7,16,13.7,15,13.7z"/>
	</g>
</g>
</svg>
